<mxfile host="app.diagrams.net" modified="2023-11-25T22:07:38.384Z" agent="Mozilla/5.0 (Macintosh; Intel Mac OS X 10_15_7) AppleWebKit/537.36 (KHTML, like Gecko) Chrome/119.0.0.0 Safari/537.36" etag="4U73A2EMYOgTSWUJRaEw" version="22.1.4" type="github">
  <diagram id="C5RBs43oDa-KdzZeNtuy" name="Page-1">
    <mxGraphModel dx="1283" dy="746" grid="1" gridSize="10" guides="1" tooltips="1" connect="1" arrows="1" fold="1" page="1" pageScale="1" pageWidth="827" pageHeight="1169" math="0" shadow="0">
      <root>
        <mxCell id="WIyWlLk6GJQsqaUBKTNV-0" />
        <mxCell id="WIyWlLk6GJQsqaUBKTNV-1" parent="WIyWlLk6GJQsqaUBKTNV-0" />
        <mxCell id="-prXKpCp32HvlWS0eABC-58" value="" style="group" vertex="1" connectable="0" parent="WIyWlLk6GJQsqaUBKTNV-1">
          <mxGeometry x="49" y="85" width="730" height="1000" as="geometry" />
        </mxCell>
        <mxCell id="WIyWlLk6GJQsqaUBKTNV-3" value="Start script" style="rounded=0;whiteSpace=wrap;html=1;fontSize=9;glass=0;strokeWidth=1;shadow=0;" parent="-prXKpCp32HvlWS0eABC-58" vertex="1">
          <mxGeometry x="10" width="120" height="40" as="geometry" />
        </mxCell>
        <mxCell id="WIyWlLk6GJQsqaUBKTNV-6" value="Are there any arguments ?" style="rhombus;whiteSpace=wrap;html=1;shadow=0;fontFamily=Helvetica;fontSize=9;align=center;strokeWidth=1;spacing=6;spacingTop=-4;" parent="-prXKpCp32HvlWS0eABC-58" vertex="1">
          <mxGeometry y="160" width="140" height="120" as="geometry" />
        </mxCell>
        <mxCell id="WIyWlLk6GJQsqaUBKTNV-7" value="Pass descriptive error message to error handler" style="rounded=0;whiteSpace=wrap;html=1;fontSize=9;glass=0;strokeWidth=1;shadow=0;" parent="-prXKpCp32HvlWS0eABC-58" vertex="1">
          <mxGeometry x="210" y="200" width="120" height="40" as="geometry" />
        </mxCell>
        <mxCell id="WIyWlLk6GJQsqaUBKTNV-5" value="No" style="edgeStyle=orthogonalEdgeStyle;rounded=0;html=1;jettySize=auto;orthogonalLoop=1;fontSize=9;endArrow=block;endFill=0;endSize=8;strokeWidth=1;shadow=0;labelBackgroundColor=none;exitX=1;exitY=0.5;exitDx=0;exitDy=0;" parent="-prXKpCp32HvlWS0eABC-58" source="WIyWlLk6GJQsqaUBKTNV-6" target="WIyWlLk6GJQsqaUBKTNV-7" edge="1">
          <mxGeometry y="10" relative="1" as="geometry">
            <mxPoint as="offset" />
            <mxPoint x="139.9999999999999" y="227.5" as="sourcePoint" />
          </mxGeometry>
        </mxCell>
        <mxCell id="-prXKpCp32HvlWS0eABC-0" value="Check for arguments" style="rounded=0;whiteSpace=wrap;html=1;fontSize=9;" vertex="1" parent="-prXKpCp32HvlWS0eABC-58">
          <mxGeometry x="10" y="80" width="120" height="40" as="geometry" />
        </mxCell>
        <mxCell id="WIyWlLk6GJQsqaUBKTNV-2" value="" style="rounded=0;html=1;jettySize=auto;orthogonalLoop=1;fontSize=9;endArrow=block;endFill=0;endSize=8;strokeWidth=1;shadow=0;labelBackgroundColor=none;edgeStyle=orthogonalEdgeStyle;entryX=0.5;entryY=0;entryDx=0;entryDy=0;" parent="-prXKpCp32HvlWS0eABC-58" source="WIyWlLk6GJQsqaUBKTNV-3" target="-prXKpCp32HvlWS0eABC-0" edge="1">
          <mxGeometry relative="1" as="geometry">
            <mxPoint x="70" y="100" as="targetPoint" />
          </mxGeometry>
        </mxCell>
        <mxCell id="-prXKpCp32HvlWS0eABC-3" value="" style="rounded=0;html=1;jettySize=auto;orthogonalLoop=1;fontSize=9;endArrow=block;endFill=0;endSize=8;strokeWidth=1;shadow=0;labelBackgroundColor=none;edgeStyle=orthogonalEdgeStyle;entryX=0.5;entryY=0;entryDx=0;entryDy=0;" edge="1" parent="-prXKpCp32HvlWS0eABC-58">
          <mxGeometry relative="1" as="geometry">
            <mxPoint x="69.75" y="120" as="sourcePoint" />
            <mxPoint x="69.75" y="160" as="targetPoint" />
            <Array as="points">
              <mxPoint x="70" y="140" />
              <mxPoint x="70" y="140" />
            </Array>
          </mxGeometry>
        </mxCell>
        <mxCell id="-prXKpCp32HvlWS0eABC-7" value="Pass option value(s) to relative function(s)" style="rounded=0;whiteSpace=wrap;html=1;fontSize=9;glass=0;strokeWidth=1;shadow=0;" vertex="1" parent="-prXKpCp32HvlWS0eABC-58">
          <mxGeometry x="10" y="480" width="120" height="40" as="geometry" />
        </mxCell>
        <mxCell id="-prXKpCp32HvlWS0eABC-8" value="Are the options valid ?" style="rhombus;whiteSpace=wrap;html=1;shadow=0;fontFamily=Helvetica;fontSize=9;align=center;strokeWidth=1;spacing=6;spacingTop=-4;" vertex="1" parent="-prXKpCp32HvlWS0eABC-58">
          <mxGeometry y="320" width="140" height="120" as="geometry" />
        </mxCell>
        <mxCell id="WIyWlLk6GJQsqaUBKTNV-4" value="Yes" style="rounded=0;html=1;jettySize=auto;orthogonalLoop=1;fontSize=9;endArrow=block;endFill=0;endSize=8;strokeWidth=1;shadow=0;labelBackgroundColor=none;edgeStyle=orthogonalEdgeStyle;entryX=0.498;entryY=0.013;entryDx=0;entryDy=0;entryPerimeter=0;" parent="-prXKpCp32HvlWS0eABC-58" source="WIyWlLk6GJQsqaUBKTNV-6" target="-prXKpCp32HvlWS0eABC-8" edge="1">
          <mxGeometry y="20" relative="1" as="geometry">
            <mxPoint as="offset" />
            <mxPoint x="70" y="320" as="targetPoint" />
            <Array as="points">
              <mxPoint x="70" y="300" />
              <mxPoint x="70" y="300" />
            </Array>
          </mxGeometry>
        </mxCell>
        <mxCell id="-prXKpCp32HvlWS0eABC-19" value="No" style="edgeStyle=orthogonalEdgeStyle;rounded=0;html=1;jettySize=auto;orthogonalLoop=1;fontSize=9;endArrow=block;endFill=0;endSize=8;strokeWidth=1;shadow=0;labelBackgroundColor=none;exitX=1;exitY=0.5;exitDx=0;exitDy=0;" edge="1" parent="-prXKpCp32HvlWS0eABC-58" target="-prXKpCp32HvlWS0eABC-20">
          <mxGeometry y="10" relative="1" as="geometry">
            <mxPoint as="offset" />
            <mxPoint x="140" y="380" as="sourcePoint" />
            <Array as="points">
              <mxPoint x="160" y="380" />
              <mxPoint x="160" y="380" />
            </Array>
          </mxGeometry>
        </mxCell>
        <mxCell id="-prXKpCp32HvlWS0eABC-20" value="Pass descriptive error message to error handler" style="rounded=0;whiteSpace=wrap;html=1;fontSize=9;glass=0;strokeWidth=1;shadow=0;" vertex="1" parent="-prXKpCp32HvlWS0eABC-58">
          <mxGeometry x="210" y="360" width="120" height="40" as="geometry" />
        </mxCell>
        <mxCell id="-prXKpCp32HvlWS0eABC-23" value="Yes" style="rounded=0;html=1;jettySize=auto;orthogonalLoop=1;fontSize=9;endArrow=block;endFill=0;endSize=8;strokeWidth=1;shadow=0;labelBackgroundColor=none;edgeStyle=orthogonalEdgeStyle;entryX=0.5;entryY=0;entryDx=0;entryDy=0;" edge="1" parent="-prXKpCp32HvlWS0eABC-58" target="-prXKpCp32HvlWS0eABC-7">
          <mxGeometry y="20" relative="1" as="geometry">
            <mxPoint as="offset" />
            <mxPoint x="69.91999999999999" y="440" as="sourcePoint" />
            <mxPoint x="70" y="470" as="targetPoint" />
            <Array as="points">
              <mxPoint x="70" y="461" />
              <mxPoint x="70" y="461" />
            </Array>
          </mxGeometry>
        </mxCell>
        <mxCell id="-prXKpCp32HvlWS0eABC-24" value="Yes" style="rounded=0;html=1;jettySize=auto;orthogonalLoop=1;fontSize=9;endArrow=block;endFill=0;endSize=8;strokeWidth=1;shadow=0;labelBackgroundColor=none;edgeStyle=orthogonalEdgeStyle;entryX=0.498;entryY=0.013;entryDx=0;entryDy=0;entryPerimeter=0;" edge="1" parent="-prXKpCp32HvlWS0eABC-58" target="-prXKpCp32HvlWS0eABC-25">
          <mxGeometry y="20" relative="1" as="geometry">
            <mxPoint as="offset" />
            <mxPoint x="70" y="520" as="sourcePoint" />
            <mxPoint x="70" y="560" as="targetPoint" />
            <Array as="points">
              <mxPoint x="70" y="540" />
              <mxPoint x="70" y="540" />
            </Array>
          </mxGeometry>
        </mxCell>
        <mxCell id="-prXKpCp32HvlWS0eABC-25" value="Are the option value(s) useful ?" style="rhombus;whiteSpace=wrap;html=1;shadow=0;fontFamily=Helvetica;fontSize=9;align=center;strokeWidth=1;spacing=6;spacingTop=-4;" vertex="1" parent="-prXKpCp32HvlWS0eABC-58">
          <mxGeometry y="560" width="140" height="120" as="geometry" />
        </mxCell>
        <mxCell id="-prXKpCp32HvlWS0eABC-26" value="No" style="edgeStyle=orthogonalEdgeStyle;rounded=0;html=1;jettySize=auto;orthogonalLoop=1;fontSize=9;endArrow=block;endFill=0;endSize=8;strokeWidth=1;shadow=0;labelBackgroundColor=none;exitX=1;exitY=0.5;exitDx=0;exitDy=0;" edge="1" parent="-prXKpCp32HvlWS0eABC-58" target="-prXKpCp32HvlWS0eABC-27">
          <mxGeometry y="10" relative="1" as="geometry">
            <mxPoint as="offset" />
            <mxPoint x="140" y="620" as="sourcePoint" />
            <Array as="points">
              <mxPoint x="160" y="620" />
              <mxPoint x="160" y="620" />
            </Array>
          </mxGeometry>
        </mxCell>
        <mxCell id="-prXKpCp32HvlWS0eABC-27" value="Pass descriptive error message to error handler" style="rounded=0;whiteSpace=wrap;html=1;fontSize=9;glass=0;strokeWidth=1;shadow=0;" vertex="1" parent="-prXKpCp32HvlWS0eABC-58">
          <mxGeometry x="210" y="600" width="120" height="40" as="geometry" />
        </mxCell>
        <mxCell id="-prXKpCp32HvlWS0eABC-30" value="Function(s) execution" style="rounded=0;whiteSpace=wrap;html=1;fontSize=9;glass=0;strokeWidth=1;shadow=0;" vertex="1" parent="-prXKpCp32HvlWS0eABC-58">
          <mxGeometry x="10" y="720" width="120" height="40" as="geometry" />
        </mxCell>
        <mxCell id="-prXKpCp32HvlWS0eABC-31" value="Yes" style="rounded=0;html=1;jettySize=auto;orthogonalLoop=1;fontSize=9;endArrow=block;endFill=0;endSize=8;strokeWidth=1;shadow=0;labelBackgroundColor=none;edgeStyle=orthogonalEdgeStyle;entryX=0.5;entryY=0;entryDx=0;entryDy=0;" edge="1" parent="-prXKpCp32HvlWS0eABC-58" target="-prXKpCp32HvlWS0eABC-30">
          <mxGeometry y="20" relative="1" as="geometry">
            <mxPoint as="offset" />
            <mxPoint x="69.91999999999999" y="680" as="sourcePoint" />
            <mxPoint x="70" y="710" as="targetPoint" />
            <Array as="points">
              <mxPoint x="70" y="701" />
              <mxPoint x="70" y="701" />
            </Array>
          </mxGeometry>
        </mxCell>
        <mxCell id="-prXKpCp32HvlWS0eABC-36" value="Yes" style="rounded=0;html=1;jettySize=auto;orthogonalLoop=1;fontSize=9;endArrow=block;endFill=0;endSize=8;strokeWidth=1;shadow=0;labelBackgroundColor=none;edgeStyle=orthogonalEdgeStyle;entryX=0.498;entryY=0.013;entryDx=0;entryDy=0;entryPerimeter=0;" edge="1" parent="-prXKpCp32HvlWS0eABC-58" target="-prXKpCp32HvlWS0eABC-37">
          <mxGeometry y="20" relative="1" as="geometry">
            <mxPoint as="offset" />
            <mxPoint x="70" y="760" as="sourcePoint" />
            <mxPoint x="70" y="800" as="targetPoint" />
            <Array as="points">
              <mxPoint x="70" y="780" />
              <mxPoint x="70" y="780" />
            </Array>
          </mxGeometry>
        </mxCell>
        <mxCell id="-prXKpCp32HvlWS0eABC-37" value="Is the output redirection &lt;br&gt;option specified ?" style="rhombus;whiteSpace=wrap;html=1;shadow=0;fontFamily=Helvetica;fontSize=9;align=center;strokeWidth=1;spacing=6;spacingTop=-4;" vertex="1" parent="-prXKpCp32HvlWS0eABC-58">
          <mxGeometry y="800" width="140" height="120" as="geometry" />
        </mxCell>
        <mxCell id="-prXKpCp32HvlWS0eABC-39" value="No" style="edgeStyle=orthogonalEdgeStyle;rounded=0;html=1;jettySize=auto;orthogonalLoop=1;fontSize=9;endArrow=block;endFill=0;endSize=8;strokeWidth=1;shadow=0;labelBackgroundColor=none;exitX=1;exitY=0.5;exitDx=0;exitDy=0;" edge="1" parent="-prXKpCp32HvlWS0eABC-58" target="-prXKpCp32HvlWS0eABC-40">
          <mxGeometry y="10" relative="1" as="geometry">
            <mxPoint as="offset" />
            <mxPoint x="140" y="860" as="sourcePoint" />
            <Array as="points">
              <mxPoint x="160" y="860" />
              <mxPoint x="160" y="860" />
            </Array>
          </mxGeometry>
        </mxCell>
        <mxCell id="-prXKpCp32HvlWS0eABC-40" value="Results are redirected to STDOUT" style="rounded=0;whiteSpace=wrap;html=1;fontSize=9;glass=0;strokeWidth=1;shadow=0;" vertex="1" parent="-prXKpCp32HvlWS0eABC-58">
          <mxGeometry x="210" y="840" width="120" height="40" as="geometry" />
        </mxCell>
        <mxCell id="-prXKpCp32HvlWS0eABC-41" value="Results are redirected to specified file" style="rounded=0;whiteSpace=wrap;html=1;fontSize=9;glass=0;strokeWidth=1;shadow=0;" vertex="1" parent="-prXKpCp32HvlWS0eABC-58">
          <mxGeometry x="10" y="960" width="120" height="40" as="geometry" />
        </mxCell>
        <mxCell id="-prXKpCp32HvlWS0eABC-42" value="Yes" style="rounded=0;html=1;jettySize=auto;orthogonalLoop=1;fontSize=9;endArrow=block;endFill=0;endSize=8;strokeWidth=1;shadow=0;labelBackgroundColor=none;edgeStyle=orthogonalEdgeStyle;entryX=0.5;entryY=0;entryDx=0;entryDy=0;" edge="1" parent="-prXKpCp32HvlWS0eABC-58" target="-prXKpCp32HvlWS0eABC-41">
          <mxGeometry y="20" relative="1" as="geometry">
            <mxPoint as="offset" />
            <mxPoint x="69.91999999999999" y="920" as="sourcePoint" />
            <mxPoint x="70" y="950" as="targetPoint" />
            <Array as="points">
              <mxPoint x="70" y="941" />
              <mxPoint x="70" y="941" />
            </Array>
          </mxGeometry>
        </mxCell>
        <mxCell id="-prXKpCp32HvlWS0eABC-44" value="Terminate script" style="shape=hexagon;perimeter=hexagonPerimeter2;whiteSpace=wrap;html=1;fixedSize=1;" vertex="1" parent="-prXKpCp32HvlWS0eABC-58">
          <mxGeometry x="610" y="820" width="120" height="80" as="geometry" />
        </mxCell>
        <mxCell id="-prXKpCp32HvlWS0eABC-45" value="Error Handler&lt;br&gt;prints error message and help section" style="shape=process;whiteSpace=wrap;html=1;backgroundOutline=1;" vertex="1" parent="-prXKpCp32HvlWS0eABC-58">
          <mxGeometry x="610" y="350" width="120" height="60" as="geometry" />
        </mxCell>
        <mxCell id="-prXKpCp32HvlWS0eABC-46" value="" style="edgeStyle=orthogonalEdgeStyle;rounded=0;html=1;jettySize=auto;orthogonalLoop=1;fontSize=9;endArrow=block;endFill=0;endSize=8;strokeWidth=1;shadow=0;labelBackgroundColor=none;exitX=1;exitY=0.5;exitDx=0;exitDy=0;entryX=0;entryY=0.5;entryDx=0;entryDy=0;" edge="1" parent="-prXKpCp32HvlWS0eABC-58" target="-prXKpCp32HvlWS0eABC-44">
          <mxGeometry y="10" relative="1" as="geometry">
            <mxPoint as="offset" />
            <mxPoint x="330" y="859.6800000000001" as="sourcePoint" />
            <Array as="points">
              <mxPoint x="350" y="860" />
            </Array>
            <mxPoint x="400" y="859.6800000000001" as="targetPoint" />
          </mxGeometry>
        </mxCell>
        <mxCell id="-prXKpCp32HvlWS0eABC-47" value="" style="edgeStyle=orthogonalEdgeStyle;rounded=0;html=1;jettySize=auto;orthogonalLoop=1;fontSize=9;endArrow=block;endFill=0;endSize=8;strokeWidth=1;shadow=0;labelBackgroundColor=none;exitX=1;exitY=0.5;exitDx=0;exitDy=0;entryX=0.5;entryY=1;entryDx=0;entryDy=0;" edge="1" parent="-prXKpCp32HvlWS0eABC-58" target="-prXKpCp32HvlWS0eABC-44">
          <mxGeometry y="10" relative="1" as="geometry">
            <mxPoint as="offset" />
            <mxPoint x="130" y="979.7" as="sourcePoint" />
            <Array as="points">
              <mxPoint x="670" y="980" />
            </Array>
            <mxPoint x="200" y="979.7" as="targetPoint" />
          </mxGeometry>
        </mxCell>
        <mxCell id="-prXKpCp32HvlWS0eABC-49" value="" style="endArrow=block;html=1;rounded=0;entryX=0;entryY=0.5;entryDx=0;entryDy=0;endFill=0;" edge="1" parent="-prXKpCp32HvlWS0eABC-58" target="-prXKpCp32HvlWS0eABC-45">
          <mxGeometry relative="1" as="geometry">
            <mxPoint x="330" y="219.55" as="sourcePoint" />
            <mxPoint x="430" y="219.55" as="targetPoint" />
          </mxGeometry>
        </mxCell>
        <mxCell id="-prXKpCp32HvlWS0eABC-50" value="" style="shape=message;html=1;outlineConnect=0;" vertex="1" parent="-prXKpCp32HvlWS0eABC-49">
          <mxGeometry width="20" height="14" relative="1" as="geometry">
            <mxPoint x="-10" y="-7" as="offset" />
          </mxGeometry>
        </mxCell>
        <mxCell id="-prXKpCp32HvlWS0eABC-51" value="" style="endArrow=block;html=1;rounded=0;endFill=0;entryX=0;entryY=0.5;entryDx=0;entryDy=0;" edge="1" parent="-prXKpCp32HvlWS0eABC-58" target="-prXKpCp32HvlWS0eABC-45">
          <mxGeometry relative="1" as="geometry">
            <mxPoint x="330" y="379.23" as="sourcePoint" />
            <mxPoint x="550" y="380" as="targetPoint" />
            <Array as="points">
              <mxPoint x="410" y="380" />
            </Array>
          </mxGeometry>
        </mxCell>
        <mxCell id="-prXKpCp32HvlWS0eABC-52" value="" style="shape=message;html=1;outlineConnect=0;" vertex="1" parent="-prXKpCp32HvlWS0eABC-51">
          <mxGeometry width="20" height="14" relative="1" as="geometry">
            <mxPoint x="-10" y="-7" as="offset" />
          </mxGeometry>
        </mxCell>
        <mxCell id="-prXKpCp32HvlWS0eABC-54" value="" style="endArrow=block;html=1;rounded=0;entryX=0;entryY=0.5;entryDx=0;entryDy=0;endFill=0;" edge="1" parent="-prXKpCp32HvlWS0eABC-58" target="-prXKpCp32HvlWS0eABC-45">
          <mxGeometry relative="1" as="geometry">
            <mxPoint x="330" y="619.6" as="sourcePoint" />
            <mxPoint x="610" y="620.05" as="targetPoint" />
          </mxGeometry>
        </mxCell>
        <mxCell id="-prXKpCp32HvlWS0eABC-55" value="" style="shape=message;html=1;outlineConnect=0;" vertex="1" parent="-prXKpCp32HvlWS0eABC-54">
          <mxGeometry width="20" height="14" relative="1" as="geometry">
            <mxPoint x="-10" y="-7" as="offset" />
          </mxGeometry>
        </mxCell>
        <mxCell id="-prXKpCp32HvlWS0eABC-57" value="" style="rounded=0;html=1;jettySize=auto;orthogonalLoop=1;fontSize=9;endArrow=block;endFill=0;endSize=8;strokeWidth=1;shadow=0;labelBackgroundColor=none;edgeStyle=orthogonalEdgeStyle;entryX=0.5;entryY=0;entryDx=0;entryDy=0;" edge="1" parent="-prXKpCp32HvlWS0eABC-58" target="-prXKpCp32HvlWS0eABC-44">
          <mxGeometry x="0.0012" y="20" relative="1" as="geometry">
            <mxPoint as="offset" />
            <mxPoint x="669.83" y="410" as="sourcePoint" />
            <mxPoint x="669.83" y="452" as="targetPoint" />
            <Array as="points" />
          </mxGeometry>
        </mxCell>
      </root>
    </mxGraphModel>
  </diagram>
</mxfile>
